<svg xmlns="http://www.w3.org/2000/svg" width="82.991" height="88.917" viewBox="0 0 82.991 88.917"><defs><style>.a{fill:#d0ddf0;}.b{fill:#a0bef3;}.c{fill:#7fa8f6;}.d{fill:#dfe3ee;}.e{fill:#fff;}.f{fill:#428dff;}</style></defs><g transform="translate(0 0)"><path class="a" d="M67,358.41s-1.212,6.064.75,9.415a.741.741,0,0,0,1.271-.018,13.541,13.541,0,0,1,3.817-4.446" transform="translate(-55.141 -296.165)"/><path class="a" d="M46.472,18.06s-4.209-7.014-29-8.759a.742.742,0,0,0-.566,1.271A43.094,43.094,0,0,1,28.688,31.4" transform="translate(-13.869 -7.684)"/><path class="b" d="M302.359,233.071c3.245,1.081,5.406,4.634,6.336,6.472a.741.741,0,0,0,1.334-.027c1.807-3.557.483-10.242.483-10.242l-5.836-2.593Zm0,0" transform="translate(-249.934 -187.312)"/><path class="c" d="M290.059,64.339c-.06.488-.119.978-.193,1.467a27.66,27.66,0,0,1-.593,2.875,25.272,25.272,0,0,1-.919,2.771,18.329,18.329,0,0,1-6.55,8.521,28.4,28.4,0,0,1-14,4.224,43.551,43.551,0,0,1-5.024.06l-.326-.015q.467,0,.933-.045a28.4,28.4,0,0,0,14-4.224,18.335,18.335,0,0,0,6.551-8.521,25.3,25.3,0,0,0,.919-2.771,27.494,27.494,0,0,0,.593-2.875c.074-.489.133-.978.193-1.467a.755.755,0,0,0-.119-.5c-1.186-1.719-9.529-12.493-33.211-13.175C279.373,50.007,288.665,62,289.94,63.835a.755.755,0,0,1,.119.5Zm0,0" transform="translate(-208.58 -41.84)"/><path class="d" d="M109.864,64.46c-.06.488-.119.978-.193,1.467a27.5,27.5,0,0,1-.593,2.875,25.3,25.3,0,0,1-.919,2.771,18.335,18.335,0,0,1-6.551,8.521,28.4,28.4,0,0,1-14,4.224q-.467.045-.933.045l-10.107-.3H76.5c-.489.015-.993.044-1.482.089a20.474,20.474,0,0,0-7.662,1.956c-5.335,2.638-8.314,10.092-5.6,15.368a8.569,8.569,0,0,0,2.43,2.935c.3.237.593.459.919.681.5.341,1.022.667,1.556,1.008.3.178.607.37.9.563a.753.753,0,0,0,.593.089A46.167,46.167,0,0,1,79.009,105.3c2.237-.059,4.787-.029,7.647.178a.741.741,0,0,1,.37,1.364c-4.09,2.52-12.626,9.233-11.5,20.7a.741.741,0,0,1-1.23.637,26.791,26.791,0,0,1-3.26-3.631,28.975,28.975,0,0,1-5.127-11.382c-.208-.03-.371-.059-.5-.074-5.039-.712-10.389-1.438-14.909-3.942a16.506,16.506,0,0,1-2.045-1.3,22.3,22.3,0,0,1-6.758-8.507C37.247,89.7,40.522,77.8,45.323,69.04a37.155,37.155,0,0,1,5.083-7.129A34.237,34.237,0,0,1,74.3,50.855c.741-.029,1.467-.059,2.193-.074h.045c23.682.682,32.025,11.456,33.211,13.175a.755.755,0,0,1,.119.5Zm0,0" transform="translate(-32.801 -41.962)"/><path class="d" d="M207.826,364.5a46.16,46.16,0,0,0-10.848,1.453.753.753,0,0,1-.593-.089c-.3-.193-.607-.385-.9-.563A59.146,59.146,0,0,1,207.826,364.5Zm0,0" transform="translate(-161.618 -301.156)"/><path class="d" d="M255.255,242.737c-1.334.089-2.712.059-4.09.015l-7.559-.222c.489-.045.993-.074,1.482-.089h.059Zm0,0" transform="translate(-201.385 -200.336)"/><path class="d" d="M256.283,214.553c.035,2.447-.683,10.1-10.094,17.191a.741.741,0,0,1-1.186-.769c.9-3.388,2.1-10.225-1.231-14.712a.741.741,0,0,1,.5-1.175l11.179-1.242a.742.742,0,0,1,.828.707Zm0,0" transform="translate(-201.403 -176.703)"/><g transform="translate(2.808 1.615)"><path class="e" d="M364.819,96.839a2.964,2.964,0,1,1-2.965-2.964A2.964,2.964,0,0,1,364.819,96.839Zm0,0" transform="translate(-299.456 -79.186)"/><path class="e" d="M362.49,95.993a1.482,1.482,0,0,1-2.83.607,3,3,0,0,1,1.956-1.956A1.481,1.481,0,0,1,362.49,95.993Zm0,0" transform="translate(-300.092 -79.822)"/><path class="e" d="M28.619,31.181a37.135,37.135,0,0,0-2.243,3.581c-4.8,8.758-8.076,20.659-3.631,30.306a23.7,23.7,0,0,0,3.2,5.062l-.236-.2s-1.212,6.064.75,9.415a.741.741,0,0,0,1.271-.018,18.719,18.719,0,0,1,2.205-3.062,21.8,21.8,0,0,1,.219-6.336l.235.2a23.693,23.693,0,0,1-3.2-5.062c-4.446-9.648-1.171-21.548,3.631-30.306a37.128,37.128,0,0,1,2.242-3.581,43.151,43.151,0,0,0-11.73-20.61.711.711,0,0,1-.071-.943c-1.217-.121-2.48-.234-3.812-.328a.741.741,0,0,0-.566,1.271,43.154,43.154,0,0,1,11.733,20.61Zm0,0" transform="translate(-16.662 -9.299)"/><path class="e" d="M210.39,52.236l-.231.174a35.522,35.522,0,0,1,9.123-1.656c.667-.026,1.32-.05,1.976-.066-1.349-.034-2.736-.043-4.184,0h-.045c-.726.015-1.452.045-2.193.074a36.1,36.1,0,0,0-5.168.657,4.759,4.759,0,0,1,.722.818Zm0,0" transform="translate(-176.149 -43.475)"/><path class="e" d="M33.341,183.449a26.129,26.129,0,0,1-2.223-9.918,36.581,36.581,0,0,1,1.2-9.94,51.425,51.425,0,0,1,4.7-11.783l2.6,1.425a48.418,48.418,0,0,0-4.424,11.088,33.659,33.659,0,0,0-1.106,9.124,23.123,23.123,0,0,0,1.948,8.759Zm0,0" transform="translate(-28.603 -127.059)"/></g><path class="f" d="M370.39,103.891a1.482,1.482,0,1,1-1.482-1.482A1.482,1.482,0,0,1,370.39,103.891Zm0,0" transform="translate(-303.701 -84.624)"/><path class="f" d="M32.168,258.16a.94.94,0,0,0,.265.089,2.072,2.072,0,0,0,.3.028,1.631,1.631,0,0,0,1.057-.418,1.432,1.432,0,0,0,.317-.462,1.5,1.5,0,0,0-.225-1.568,1.59,1.59,0,0,0-.464-.342,1.448,1.448,0,0,0-1.63.178,1.511,1.511,0,0,0-.1,2.172l.221.185A1.1,1.1,0,0,0,32.168,258.16Zm0,0" transform="translate(-25.927 -210.973)"/><path class="f" d="M13.656,23.228c-.691,1.017-1.346,2.059-1.937,3.136a51.41,51.41,0,0,0-4.7,11.783l-.362,1.491a1.482,1.482,0,0,0,2.9.628l.336-1.389a48.424,48.424,0,0,1,4.427-11.088c.531-.966,1.119-1.9,1.735-2.815a1.465,1.465,0,0,0,.72-1.037,36.031,36.031,0,0,1,2.418-2.984A32.931,32.931,0,0,1,42.062,10.375C68.985,9.084,78.815,20.4,80.47,22.621q-.066.559-.148,1.116c-.125.794-.31,1.655-.537,2.537a20.855,20.855,0,0,0-6.673-1.079,1.482,1.482,0,0,0,0,2.964,17.849,17.849,0,0,1,5.755.937,16.856,16.856,0,0,1-5.988,7.816c-3.26,2.248-7.485,3.509-13.284,3.967-1.021.083-2.054.1-3.015.094A13.872,13.872,0,0,0,56.8,36.84a1.482,1.482,0,0,0-2.934.421c.014.084.977,7.721-7.832,15.275.842-4.306,1.195-10.866-2.991-15.051a1.482,1.482,0,0,0-2.1,2.1,7.746,7.746,0,0,1,.974,1.216,21.5,21.5,0,0,0-7.52,2.024,14.211,14.211,0,0,0-7.382,11,11.825,11.825,0,0,0,.3,4.178,11.816,11.816,0,0,1-3.743-5.051c-1.109-3.127-.464-6.722,1.913-10.685,8.3-13.84,26.587-12.638,26.772-12.619a1.486,1.486,0,0,0,.225-2.964c-.827-.059-20.286-1.375-29.542,14.052-2.855,4.76-3.583,9.2-2.165,13.2,2.207,6.224,8.857,9.118,10.126,9.62.024.02.044.043.069.062a28.643,28.643,0,0,0,2.5,1.7c.418.263.837.526,1.254.8.02.014.041.018.061.03a1.335,1.335,0,0,0,.148.069,1.436,1.436,0,0,0,.344.111,1.38,1.38,0,0,0,.159.024c.035,0,.069.015.1.015a1.493,1.493,0,0,0,.394-.058h.022a51.075,51.075,0,0,1,16.162-1.435c-4.335,3.157-10.572,9.356-10.485,18.888A27.322,27.322,0,0,1,35.052,70.9c0-.012-.01-.021-.014-.033q-.108-.269-.24-.526c-.134-.134-.273-.264-.416-.388a5.6,5.6,0,0,0-.545-.2c-.009,0-.015-.007-.025-.009l-.2-.031c-.134-.021-.248-.039-.3-.043l-.225-.033c-4.891-.691-9.959-1.4-14.185-3.746A14.8,14.8,0,0,1,17.031,64.7a20.962,20.962,0,0,1-6.3-7.943,23.739,23.739,0,0,1-1.615-5.282,1.482,1.482,0,0,0-2.923.5A26.725,26.725,0,0,0,8.042,58a25.339,25.339,0,0,0,2.743,4.576c-.329,2.058-.987,8.1,2,11.082a1.481,1.481,0,0,0,1.049.439,1.453,1.453,0,0,0,.237-.019,1.483,1.483,0,0,0,1.09-.8,16.4,16.4,0,0,1,3.178-4.361A45.011,45.011,0,0,0,32.4,72.534,28.6,28.6,0,0,0,42.637,88.661a1.482,1.482,0,0,0,2.293-1.482c-2.716-14.951,11.873-21.822,12.5-22.1a1.482,1.482,0,0,0-.467-2.815,60.907,60.907,0,0,0-21.171,1.026c-.248-.158-.494-.32-.741-.476A25.973,25.973,0,0,1,32.8,61.287a7.83,7.83,0,0,1-2.836-7.164,11.148,11.148,0,0,1,5.753-8.647,19.52,19.52,0,0,1,7.435-1.805c1.381,5.386-1.037,12.041-1.067,12.127A1.482,1.482,0,0,0,44.3,57.549a30.531,30.531,0,0,0,9.761-9.916c3.1,1.566,4.269,6.034,4.281,6.076a1.479,1.479,0,0,0,2.482.691c2.909-2.909,2.361-8.705,2.026-10.9a26.623,26.623,0,0,0,11.715-4.15c4.627-3.2,7.629-8.447,8.683-15.159q.14-.9.233-1.809a1.484,1.484,0,0,0-.2-.914C82.894,20.832,73.558,5.9,41.921,7.411a36.974,36.974,0,0,0-8.24,1.334C31.626,6.559,24.4,1.244,2.06,0A1.5,1.5,0,0,0,.593.954,1.482,1.482,0,0,0,1.054,2.64a41.7,41.7,0,0,1,12.6,20.587Zm.209,46.426a13.763,13.763,0,0,1-.381-4.069,20.729,20.729,0,0,0,1.779,1.482c.14.105.289.2.433.3a17.132,17.132,0,0,0-1.83,2.291ZM59.907,49.73a10.968,10.968,0,0,0-4.53-4.742c.148-.359.287-.712.409-1.054q.537.011,1.119.012c.935,0,1.927-.026,2.929-.107H59.9a18.729,18.729,0,0,1,.006,5.891ZM30.393,9.835A35.54,35.54,0,0,0,17,18.952c-.381.418-.741.852-1.1,1.288A44.739,44.739,0,0,0,5.979,3.249c15.255,1.31,21.847,4.693,24.414,6.586Zm0,0" transform="translate(-0.496 0.001)"/><path class="f" d="M332.774,149.758a1.481,1.481,0,0,0-2,.621,7.085,7.085,0,0,0,.323,7.887,9.214,9.214,0,0,0,2.929,2.608,1.482,1.482,0,0,0,1.389-2.619,4.636,4.636,0,0,1-2.018-6.488,1.482,1.482,0,0,0-.621-2.009Zm0,0" transform="translate(-272.549 -123.608)"/><path class="f" d="M363.7,148.156a9.214,9.214,0,0,0,2.93,2.608,1.456,1.456,0,0,0,.686.172,1.482,1.482,0,0,0,.7-2.79A4.632,4.632,0,0,1,366,141.652a1.483,1.483,0,1,0-2.623-1.383A7.084,7.084,0,0,0,363.7,148.156Zm0,0" transform="translate(-299.492 -115.254)"/></g></svg>