<svg xmlns="http://www.w3.org/2000/svg" width="86.649" height="88.179" viewBox="0 0 86.649 88.179"><defs><style>.a{fill:#d0ddf0;}.b{fill:#7fa8f6;}.c{fill:#dfe3ee;}.d{fill:#fff;}.e{fill:#428dff;}</style></defs><g transform="translate(0 0)"><path class="a" d="M120.278,177.94s-9.471,8.577-15.346,7.108,0-5.875,0-5.875-7.343-2.937-1.468-7.343v.235c-.044-.044-.1-.074-.147-.118-5.61-4.333,1.615-7.226,1.615-7.226s-5.875-4.406,0-5.875c4.48-1.116,14.348,4.964,16.008,6.52Zm0,0" transform="translate(-83.562 -130.942)"/><path class="b" d="M248.756,386.949c.632,11.911-8.576,19.063-16.155,19a22.062,22.062,0,0,1-2.394-.147,17.037,17.037,0,0,0,12.806-10.515,13.977,13.977,0,0,0,2.335-2.144c1.146-1.336,3.407-4.2,3.407-6.2Zm0,0" transform="translate(-190.011 -319.243)"/><path class="b" d="M244.908,28.2c0,3.7-1.791,6.726-3.113,6.638a2.38,2.38,0,0,1-1.175-.528,11.683,11.683,0,0,0-1.483-.852A10.254,10.254,0,0,0,240.5,28.2c-1.469-1.469-8.812-2.306-11.749-5.243a21.178,21.178,0,0,1-2.54-4.274c-1.263-2.1-3.334-7.343-12.146-7.343-.323,0-.646-1.337-.984-2.2A15.3,15.3,0,0,1,217,8.405c.5-.029.983,2.938,1.468,2.938,8.812,0,10.882,5.242,12.146,7.343a21.207,21.207,0,0,0,2.54,4.274c2.938,2.937,10.28,3.774,11.749,5.243Zm0,0" transform="translate(-175.882 -6.934)"/><path class="c" d="M151.135,29.491a9.46,9.46,0,0,0-.426,3.906A6.845,6.845,0,0,0,153.22,38.3c2.746,2.13,6.624,1.41,9.84,2.365a16.164,16.164,0,0,1,5.023,28.491c-2.673,1.983-7.725,2.32-12.528,3.04-6.05.925-11.719,2.452-11.763,8.694-.029,4.832,2.35,8.224,7.328,8.812a1.455,1.455,0,0,0,.25.015,18.687,18.687,0,0,0,13.115-3.275A17.037,17.037,0,0,1,151.678,96.96c-8.386-.969-16.625-6.667-16.655-15.876a14.135,14.135,0,0,1,3.54-8.723c1.689-2.189,3.8-4.318,5.624-6.624.588-.763,1.161-1.542,1.675-2.35a16.1,16.1,0,0,0,1.63-3.26,12.008,12.008,0,0,0,.632-2.717,11.711,11.711,0,0,0,.073-1.248,14.8,14.8,0,0,0-.352-3.216,18.028,18.028,0,0,0-.676-2.467,27.912,27.912,0,0,0-1.424-3.451c-.411-.867-.867-1.718-1.322-2.556-.6-1.116-1.219-2.2-1.821-3.26-.1-.191-.206-.368-.309-.543-.367-.661-.734-1.278-1.057-1.88a20.985,20.985,0,0,1-3.319-12.234A15,15,0,0,1,148.682,12.6c.338.867.661,2.2.984,2.2,8.811,0,10.882,5.242,12.146,7.343a21.178,21.178,0,0,0,2.541,4.274c2.938,2.937,10.28,3.774,11.749,5.243a10.254,10.254,0,0,1-1.366,5.257c-6.095-3.055-13.629-.954-19.944-3.642-.573-.249-4.009-2.7-3.657-3.789Zm0,0" transform="translate(-111.482 -10.397)"/><path class="c" d="M19.151,114.269a5.14,5.14,0,1,1-5.14-5.14A5.14,5.14,0,0,1,19.151,114.269Zm0,0" transform="translate(-7.402 -90.034)"/><path class="c" d="M65.1,19.738A2.937,2.937,0,1,1,62.168,16.8,2.937,2.937,0,0,1,65.1,19.738Zm0,0" transform="translate(-48.95 -13.861)"/><path class="c" d="M413.643,408.039a5.14,5.14,0,1,1-5.14-5.141A5.14,5.14,0,0,1,413.643,408.039Zm0,0" transform="translate(-332.869 -332.402)"/><path class="c" d="M459.6,338.688a2.937,2.937,0,1,1-2.937-2.938A2.937,2.937,0,0,1,459.6,338.688Zm0,0" transform="translate(-374.417 -277.003)"/><path class="b" d="M271.441,185.588a16.283,16.283,0,0,1-6.55,13c-2.673,1.983-7.725,2.32-12.528,3.04a10.784,10.784,0,0,0,1-.749c3.039-2.6,11.543-11.955,3.128-30.445-.147-.323-.293-.632-.44-.955a20.332,20.332,0,0,1,3.818.617,16.131,16.131,0,0,1,11.573,15.494Zm0,0" transform="translate(-208.29 -139.823)"/><path class="a" d="M271.747,190.09a16.283,16.283,0,0,1-6.55,13,16.829,16.829,0,0,1-7.123,2.291c3.039-2.6,11.543-11.955,3.128-30.445a16.146,16.146,0,0,1,10.545,15.156Zm0,0" transform="translate(-213.002 -144.325)"/><path class="d" d="M266.55,61.7a2.937,2.937,0,1,1-2.938-2.938A2.937,2.937,0,0,1,266.55,61.7Zm0,0" transform="translate(-215.148 -48.483)"/><path class="d" d="M264.235,60.86a1.469,1.469,0,0,1-2.805.6,2.972,2.972,0,0,1,1.938-1.938,1.469,1.469,0,0,1,.867,1.336Zm0,0" transform="translate(-215.77 -49.108)"/><path class="d" d="M108.656,159.144a8.043,8.043,0,0,0-3.707-.222c-5.875,1.469,0,5.875,0,5.875s-7.226,2.893-1.616,7.226c-5.573,4.335,1.616,7.22,1.616,7.22s-5.875,4.406,0,5.875a7.77,7.77,0,0,0,3.836-.181c-4.847-1.615.57-5.693.57-5.693s-7.186-2.884-1.616-7.22c-5.61-4.333,1.616-7.226,1.616-7.226s-5.331-4.011-.7-5.652Zm0,0" transform="translate(-83.576 -131.016)"/><path class="d" d="M153.587,96.534a12.747,12.747,0,0,1-1.909.426c-8.386-.969-16.625-6.667-16.655-15.876a14.135,14.135,0,0,1,3.54-8.723c1.689-2.189,3.8-4.318,5.624-6.624.588-.763,1.161-1.542,1.675-2.35a16.1,16.1,0,0,0,1.63-3.26,12.008,12.008,0,0,0,.632-2.717,11.7,11.7,0,0,0,.073-1.248,14.8,14.8,0,0,0-.352-3.216,18.025,18.025,0,0,0-.676-2.467,27.915,27.915,0,0,0-1.424-3.451c-.411-.867-.867-1.718-1.322-2.556-.6-1.116-1.219-2.2-1.821-3.26-.1-.191-.206-.368-.309-.543-.367-.661-.734-1.278-1.057-1.88a20.984,20.984,0,0,1-3.319-12.234A15,15,0,0,1,148.681,12.6c.221.558.426,1.322.632,1.777a14.364,14.364,0,0,0-7.034,12.175A20.984,20.984,0,0,0,145.6,38.787c.323.6.69,1.219,1.057,1.88.1.176.206.352.308.543.6,1.057,1.219,2.144,1.822,3.26.455.837.91,1.689,1.322,2.556a28.015,28.015,0,0,1,1.424,3.451,18.015,18.015,0,0,1,.675,2.467,14.757,14.757,0,0,1,.353,3.216,11.724,11.724,0,0,1-.073,1.248,12.046,12.046,0,0,1-.632,2.717,16.1,16.1,0,0,1-1.63,3.26c-.514.808-1.087,1.586-1.675,2.35-1.821,2.306-3.936,4.435-5.625,6.624a14.134,14.134,0,0,0-3.539,8.723c.029,8.313,6.741,13.761,14.2,15.45Zm0,0" transform="translate(-111.481 -10.396)"/><path class="d" d="M147.171,421.492a24.359,24.359,0,0,1-9.848-2.21,19.278,19.278,0,0,1-7.916-6.447,15.931,15.931,0,0,1-2.735-8.826h2.938a12.96,12.96,0,0,0,2.221,7.173c3.309,4.742,9.477,7.291,15.361,7.374Zm0,0" transform="translate(-104.591 -333.318)"/><g transform="translate(0 0)"><path class="e" d="M36.364,69.83a1.469,1.469,0,1,0-2.046-.357A1.468,1.468,0,0,0,36.364,69.83Zm0,0" transform="translate(-28.177 -55.408)"/><path class="e" d="M430.856,313.239a1.469,1.469,0,1,0-2.046-.357A1.469,1.469,0,0,0,430.856,313.239Zm0,0" transform="translate(-353.643 -256.228)"/><path class="e" d="M272,68.629a1.469,1.469,0,1,1-1.469-1.469A1.469,1.469,0,0,1,272,68.629Zm0,0" transform="translate(-222.07 -55.409)"/><path class="e" d="M.477,107.343a6.609,6.609,0,1,0,6.609-6.609A6.609,6.609,0,0,0,.477,107.343Zm6.609-3.672a3.672,3.672,0,1,1-3.672,3.672A3.672,3.672,0,0,1,7.086,103.671Zm0,0" transform="translate(-0.477 -83.109)"/><path class="e" d="M55.246,8.406a4.406,4.406,0,1,0,4.406,4.406A4.406,4.406,0,0,0,55.246,8.406Zm0,5.875a1.469,1.469,0,1,1,1.038-.43A1.469,1.469,0,0,1,55.246,14.281Zm0,0" transform="translate(-42.028 -6.935)"/><path class="e" d="M394.969,401.113a6.609,6.609,0,1,0,6.609-6.609A6.609,6.609,0,0,0,394.969,401.113Zm6.609-3.672a3.671,3.671,0,1,1-3.671,3.672A3.672,3.672,0,0,1,401.578,397.441Zm0,0" transform="translate(-325.944 -325.476)"/><path class="e" d="M449.738,327.359a4.406,4.406,0,1,0,4.406,4.406A4.406,4.406,0,0,0,449.738,327.359Zm0,5.874a1.468,1.468,0,1,1,1.468-1.468A1.469,1.469,0,0,1,449.738,333.233Zm0,0" transform="translate(-367.495 -270.08)"/><path class="e" d="M172.6,469.553a1.625,1.625,0,0,0-.517.232,1.525,1.525,0,0,0-.416.392,1.451,1.451,0,0,0-.23,1.106,1.493,1.493,0,0,0,.7.958,1.661,1.661,0,0,0,1.175.173l.263-.1a1.745,1.745,0,0,0,.442-.367,2.268,2.268,0,0,0,.159-.25,1.692,1.692,0,0,0,.111-1.122,1.5,1.5,0,0,0-.248-.5A1.468,1.468,0,0,0,172.6,469.553Zm0,0" transform="translate(-141.505 -387.369)"/><path class="e" d="M97.727,26.481c-2.139.534-3.371,1.541-3.664,2.988a4.9,4.9,0,0,0,1.528,4,5.761,5.761,0,0,0-2.69,3.732,4.614,4.614,0,0,0,1.395,3.8A4.629,4.629,0,0,0,92.9,44.782a5.75,5.75,0,0,0,2.691,3.756,4.894,4.894,0,0,0-1.529,4c.293,1.45,1.526,2.455,3.664,2.99a7.426,7.426,0,0,0,1.8.21c3.672,0,7.844-2.35,10.854-4.466a37.376,37.376,0,0,1-4.812,6.315c-1,1.131-2.034,2.3-2.938,3.478A15.714,15.714,0,0,0,98.794,70.7a15.923,15.923,0,0,0,2.735,8.827c.293.451.653.852.979,1.277a1.424,1.424,0,0,0,2.122.133,1.535,1.535,0,0,0,.129-2.02c-.266-.352-.569-.681-.808-1.051a12.956,12.956,0,0,1-2.221-7.171c0-2.548.959-4.891,3.231-7.829.848-1.1,1.8-2.181,2.817-3.327.943-1.066,1.919-2.176,2.839-3.344l3.476,2.318a1.469,1.469,0,1,0,1.63-2.443l-3.4-2.265a17.918,17.918,0,0,0,1.824-3.686l6.346,1.269a1.4,1.4,0,0,0,.272.023,1.469,1.469,0,0,0,.294-2.908l-6.21-1.243a1.391,1.391,0,0,0,0-.464q.041-.5.042-1.028a16.484,16.484,0,0,0-.206-2.46,1.3,1.3,0,0,0,.118-1.153l6.509-2.6a1.469,1.469,0,1,0-1.092-2.728l-6.5,2.607a32.738,32.738,0,0,0-1.424-3.435l4.729-2.356A1.469,1.469,0,0,0,115.71,31l-4.763,2.382c-.464-.852-.932-1.69-1.392-2.5l-.44-.778,3.659-2.439a1.469,1.469,0,1,0-1.63-2.443l-3.479,2.319a19.452,19.452,0,0,1-3.052-11.391c0-7.2,6.274-12.433,12.429-13.15l.138.407c.407,1.21.824,2.463,2.119,2.463,7.161,0,9.252,3.729,10.495,5.957.138.247.266.473.386.673.254.424.482.891.714,1.361a11.753,11.753,0,0,0,2.057,3.2c1.978,1.975,5.447,3.05,8.234,3.912a29.924,29.924,0,0,1,3.055,1.057,7.05,7.05,0,0,1-1.608,4.357c-.124-.066-.294-.18-.368-.232-3.84-2.608-8.232-2.851-12.483-3.085a26.892,26.892,0,0,1-9.159-1.537,11.013,11.013,0,0,1-2.79-2.372,1.469,1.469,0,0,0-2.861-.544c-1.075,3.232-.725,7.868,2.583,10.427a11.618,11.618,0,0,0,6.194,2,1.44,1.44,0,0,0,.116.432c4.065,8.13,5.141,15.1,3.2,20.723a15.066,15.066,0,0,1-6.732,8.181c-4.576.694-12.715,2.056-12.777,10.094-.04,5.888,3.1,9.634,8.623,10.28a19.4,19.4,0,0,0,16.76-5.656,16.128,16.128,0,0,1-3.412,5.434,14.45,14.45,0,0,1-10.133,4.691h-.081a22.06,22.06,0,0,1-5.422-.771,1.536,1.536,0,0,0-1.792.988,1.422,1.422,0,0,0,1.016,1.844,24.953,24.953,0,0,0,6.176.882h.1a17.427,17.427,0,0,0,12.266-5.606,19.906,19.906,0,0,0,5.271-15.091v-.009a1.471,1.471,0,0,0-2.938.173c.055,1-1.175,3.121-3.054,5.287a16.42,16.42,0,0,1-14.422,4.907c-5.015-.588-6.043-4.312-6.022-7.343.032-4.733,3.88-6.242,10.514-7.246.841-.128,1.69-.242,2.534-.357,4.186-.57,8.141-1.107,10.651-2.966A17.632,17.632,0,0,0,128.7,28.857a21.388,21.388,0,0,0-4-.647,10.176,10.176,0,0,1-5.339-1.469,5.455,5.455,0,0,1-1.968-3.9,16.352,16.352,0,0,0,2.056,1.386,29.478,29.478,0,0,0,10.179,1.783c4.024.22,7.823.43,10.988,2.58a3.9,3.9,0,0,0,1.91.777,2.825,2.825,0,0,0,2.154-.868,10.426,10.426,0,0,0,2.528-7.224,1.468,1.468,0,0,0-.431-1.038,12.282,12.282,0,0,0-4.723-2.056c-2.478-.767-5.562-1.722-7.026-3.186a9.276,9.276,0,0,1-1.5-2.422c-.269-.545-.534-1.082-.831-1.574-.106-.178-.217-.377-.339-.6-1.313-2.35-4-7.143-12.234-7.445-.057-.164-.115-.334-.159-.468-.413-1.254-.836-2.549-2.2-2.485-7.734.369-16.086,6.65-16.086,16.155a21.762,21.762,0,0,0,2.37,10.868,10.157,10.157,0,0,0-6.32-.543ZM133.4,34.725a14.686,14.686,0,0,1-.956,22.847,15.794,15.794,0,0,1-6.428,2,18.058,18.058,0,0,0,3.8-6.324c2.131-6.083,1.194-13.4-2.708-21.736.252.053.519.085.761.155a14.784,14.784,0,0,1,5.532,3.055ZM98.444,52.68c-1.175-.294-1.482-.648-1.5-.72-.09-.441.931-1.731,2.024-2.557a1.469,1.469,0,0,0-.338-2.536c-.824-.329-2.676-1.408-2.816-2.471-.083-.633.517-1.336,1.108-1.864a1.434,1.434,0,0,0,.734-.379,1.585,1.585,0,0,0-.752-2.691c-.573-.511-1.185-1.216-1.1-1.85.131-.956,1.762-2.038,2.818-2.469a1.469,1.469,0,0,0,.335-2.538c-1.071-.8-2.109-2.116-2.021-2.554.015-.072.327-.429,1.5-.721,3.671-.906,7.137,1.737,8.612,3.085a59.115,59.115,0,0,1,3.475,6.832l-6.646-3.8a1.469,1.469,0,0,0-1.457,2.55l7.254,4.144-6.929,1.981a1.468,1.468,0,0,0,.4,2.88,1.417,1.417,0,0,0,.4-.057l8.334-2.381c.036.4.078.8.078,1.206,0,.21-.04.408-.053.615-2.869,2.46-9.537,7.289-13.463,6.3Zm0,0" transform="translate(-76.709 0)"/></g></g></svg>