<svg xmlns="http://www.w3.org/2000/svg" width="73.42" height="77.899" viewBox="0 0 73.42 77.899"><defs><style>.a{fill:#7fa8f6;}.b{fill:#d0ddf0;}.c{fill:#9a9a9a;}.d{fill:#fff;}.e{fill:#428dff;}</style></defs><g transform="translate(0 0)"><path class="a" d="M308.382,428.488c1.739,1.856,3.895,3.622,5.751,3.622,3.894,0,5.193,6.491-7.79,5.193a43.678,43.678,0,0,1-8.529-1.506H297.8" transform="translate(-252.497 -363.299)"/><path class="a" d="M241,14.359c-.13.389-.286.844-.468,1.376a10.117,10.117,0,0,1-1.8,3.233,8.845,8.845,0,0,1-2.9,2.285,11.678,11.678,0,0,1-4.271.869,10.254,10.254,0,0,0-4.232.922c-4.8,2.519-5.778,8.4-4.129,13.125,3.31,9.412,6.894,18.681,5.011,28.911a17.926,17.926,0,0,1-10.749,13.7,26.52,26.52,0,0,1-8.477,1.792c-2.908.207-5.855.143-8.7.207l-.675-.039c1.635-.026,3.285-.052,4.92-.169a26.52,26.52,0,0,0,8.477-1.792,17.926,17.926,0,0,0,10.749-13.7c1.883-10.23-1.7-19.5-5.011-28.911-1.649-4.726-.675-10.607,4.128-13.125a10.254,10.254,0,0,1,4.232-.922,11.678,11.678,0,0,0,4.271-.869,8.845,8.845,0,0,0,2.9-2.285,10.116,10.116,0,0,0,1.8-3.233c.195-.532.351-.987.468-1.376a1.28,1.28,0,0,0-.857-1.636c-2.791-.818-9.477-2.752-12.268-3.349-.96-.207-1.87-.376-2.714-.493a18.874,18.874,0,0,1,7.167.493c2.791.6,9.477,2.532,12.255,3.349a1.286,1.286,0,0,1,.87,1.636Zm0,0" transform="translate(-169.244 -7.409)"/><path class="b" d="M74.532,15.15c-.117.389-.273.844-.468,1.376a10.116,10.116,0,0,1-1.8,3.233,8.845,8.845,0,0,1-2.9,2.285,11.678,11.678,0,0,1-4.271.869,10.254,10.254,0,0,0-4.232.922c-4.8,2.519-5.778,8.4-4.128,13.125,3.31,9.412,6.894,18.681,5.011,28.911a17.926,17.926,0,0,1-10.749,13.7,26.52,26.52,0,0,1-8.477,1.792c-1.635.116-3.285.143-4.92.169L23.68,80.581c-5.271-1.077-10.438-3.388-12.8-8.5C7.568,64.924,8.387,55.8,9.516,48.241c.818-5.465,2.233-14.475,5.466-19.045-1.882-2.6-5.764-9.451-.493-16.4a18.15,18.15,0,0,1,1.259-1.467,1.306,1.306,0,0,1,1.792-.039,12.641,12.641,0,0,1,4.141,10.7,17.048,17.048,0,0,1-.714,3.389c-.013.052-.039.1-.052.156a1.158,1.158,0,0,1,.13-.117,14.974,14.974,0,0,1,7.673-4.193A12.736,12.736,0,0,1,36.7,22.394a1.3,1.3,0,0,1,.623,1.688c-2.778,5.777-8.192,8.348-14.436,7.517q-.506-.059-1.013-.156c-.052.09-.091.181-.143.272A27.826,27.826,0,0,0,19.4,46.074a10.126,10.126,0,0,0,8.075,8.621,11.442,11.442,0,0,0,3.544.13A25.662,25.662,0,0,0,37.4,53.058c.571-.234,1.142-.455,1.7-.688l.987-.7c.247-.351.493-.7.74-1.065.727-1.09,1.454-2.233,2.155-3.453,2.6-4.543,4.492-11.554,5.738-17.435s1.83-10.632,1.83-10.632a17.69,17.69,0,0,1,2.207-5.439,8.805,8.805,0,0,1,4.5-3.609,8.17,8.17,0,0,1,1.428-.364c.844.117,1.753.286,2.714.493,2.791.6,9.477,2.532,12.268,3.349a1.28,1.28,0,0,1,.857,1.636Zm0,0" transform="translate(-7.232 -8.2)"/><path class="c" d="M96.488,152.933c-.389.052-.766.091-1.155.116.052-.091.091-.182.143-.272Q95.981,152.875,96.488,152.933Zm0,0" transform="translate(-80.832 -129.535)"/><path class="b" d="M123.88,409.629a.649.649,0,0,1,.616.857c-1.087,3.082-5.553,13.424-16.6,13.424-12.793,0-1.634-6.3,2.421-13.939a.632.632,0,0,1,.561-.342Zm0,0" transform="translate(-86.427 -347.309)"/><g transform="translate(0 2.758)"><path class="d" d="M351.4,28.225a2.6,2.6,0,1,1-2.6-2.6A2.6,2.6,0,0,1,351.4,28.225Zm0,0" transform="translate(-293.543 -24.488)"/><path class="d" d="M349.459,27.58a1.3,1.3,0,0,1-2.479.532,2.628,2.628,0,0,1,1.713-1.713A1.3,1.3,0,0,1,349.459,27.58Zm0,0" transform="translate(-294.194 -25.14)"/><path class="d" d="M24.849,86.776c-5.268-1.077-7.713-2.418-10.074-7.53-3.311-7.153-2.493-16.28-1.363-23.836.818-5.465,2.233-14.475,5.466-19.045-1.883-2.6-5.765-9.451-.493-16.4.089-.117.188-.231.282-.347a13.282,13.282,0,0,0-1.126-1.159,1.306,1.306,0,0,0-1.792.039,18.149,18.149,0,0,0-1.259,1.467c-5.271,6.945-1.389,13.8.493,16.4-3.232,4.57-4.647,13.58-5.466,19.045-1.129,7.556-1.947,16.683,1.363,23.836,2.362,5.113,7.53,7.424,12.794,8.5-1.785,2.6-.366,1.268,1.175-.972Zm0,0" transform="translate(-7.232 -18.127)"/><path class="d" d="M318.22,476.461c-.366-.026-.743-.057-1.136-.1a43.679,43.679,0,0,1-8.529-1.506h-.013l.433-.3a26.01,26.01,0,0,1-3.1.641,51.979,51.979,0,0,0,7.314,1.168A27.3,27.3,0,0,0,318.22,476.461Zm0,0" transform="translate(-259.343 -405.119)"/><path class="d" d="M2.482,286.477c-2.49-5.5-2.693-11.513-2.316-17.193.18-2.486.489-4.946.853-7.386l2.568.39c-.357,2.4-.658,4.792-.831,7.184-.373,5.466-.118,11.088,2.077,15.919Zm0,0" transform="translate(-0.018 -224.811)"/></g><path class="e" d="M357.343,35.462a1.3,1.3,0,1,1-1.3-1.3A1.3,1.3,0,0,1,357.343,35.462Zm0,0" transform="translate(-300.779 -28.967)"/><path class="e" d="M59.07,16.784a9.738,9.738,0,0,1,3.8-.779,12.287,12.287,0,0,0,4.673-.995A10.131,10.131,0,0,0,70.867,12.4,11.614,11.614,0,0,0,72.9,8.763c.73-2.085.833-2.495.865-2.629a1.448,1.448,0,0,0-.789-1.667,1.3,1.3,0,0,0-.454-.074L69.6,3.529C65.62,2.342,62.178,1.317,59.288.693c-4.155-.9-6.945-.922-9.312-.075a10.168,10.168,0,0,0-5.152,4.11,18.68,18.68,0,0,0-2.372,5.842,1.224,1.224,0,0,0-.029.153c0,.047-.6,4.764-1.824,10.516C39,28.807,37.066,34.708,35.011,38.3a50.794,50.794,0,0,1-3,4.61,1.332,1.332,0,0,0-.241.047,29.7,29.7,0,0,1-7.738,2.368,8.928,8.928,0,0,1-10.2-7.674A26.6,26.6,0,0,1,15.8,24.672a18.352,18.352,0,0,0,2.448.19A14.506,14.506,0,0,0,32.155,15.3a1.322,1.322,0,0,0,.092-.481c0-.538,0-1.047-2.576-2.145a13.9,13.9,0,0,0-13.563,1.34A14.165,14.165,0,0,0,10.443,1.249a1.3,1.3,0,0,0-1.6.13C.393,9.237,4.4,17.691,6.58,21.025c-3.124,5.1-4.457,13.95-5.193,18.824-.364,2.44-.673,4.9-.853,7.386L.456,48.559A1.3,1.3,0,0,0,1.7,49.921,1.317,1.317,0,0,0,3.05,48.689l.075-1.269c.172-2.391.474-4.785.831-7.183.738-4.919,2.1-14.06,5.237-18.484.009-.013.011-.029.02-.042a1.228,1.228,0,0,0,.113-.26,1.278,1.278,0,0,0,.078-.21,1.347,1.347,0,0,0,0-.25,1.285,1.285,0,0,0-.009-.244,3.718,3.718,0,0,0-.2-.465.344.344,0,0,0-.018-.043c-1.951-2.7-5.672-9.536.645-16.175,1.7,1.523,5.284,5.745,3.051,12.745-.016.044-.056.165-.068.21a1.3,1.3,0,0,0,2.171,1.241,1.4,1.4,0,0,0,.115-.1c6.178-5.925,12.008-3.917,14.2-2.806-2.6,5.338-7.757,7.8-14.021,6.621h-.061a1.194,1.194,0,0,0-.276,0,.772.772,0,0,0-.45.118,1.377,1.377,0,0,0-.225.119,1.421,1.421,0,0,0-.16.162,1.21,1.21,0,0,0-.175.213c-.01.018-.029.029-.039.048A29.005,29.005,0,0,0,11.268,38.1,11.478,11.478,0,0,0,22.807,48a13.373,13.373,0,0,0,1.511-.086,22.155,22.155,0,0,0,4.544-1.053c-.622.7-1.254,1.388-1.912,2.047a1.3,1.3,0,1,0,1.829,1.836A52.789,52.789,0,0,0,37.263,39.6c2.22-3.886,4.2-9.88,5.88-17.816,1.154-5.453,1.764-10,1.85-10.645a16.1,16.1,0,0,1,2-4.974,7.527,7.527,0,0,1,3.853-3.1c1.854-.662,4.284-.61,7.891.169,2.788.6,6.186,1.613,10.118,2.784l2.031.6c-.111.329-.26.748-.444,1.285a8.993,8.993,0,0,1-1.572,2.825A7.515,7.515,0,0,1,66.4,12.675a10.382,10.382,0,0,1-3.8.743,11.7,11.7,0,0,0-4.744,1.07c-5.485,2.888-6.535,9.582-4.738,14.7l.536,1.523c3.156,8.943,6.137,17.4,4.421,26.731a16.7,16.7,0,0,1-9.98,12.731,25.143,25.143,0,0,1-8.057,1.7c-1.764.13-3.572.146-5.341.16a26.244,26.244,0,0,0,5.286-9.367,1.3,1.3,0,1,0-2.5-.684c-.034.132-3.765,13.323-15.622,13.323-4.146,0-4.651-.7-4.663-.707-.058-.283.26-.852.736-1.523l.01-.014c.677-.95,1.674-2.108,2.448-3.005A36.474,36.474,0,0,0,25.613,62.9a1.3,1.3,0,1,0-2.322-1.161,34.546,34.546,0,0,1-4.867,6.621c-.789.909-1.511,1.759-2.124,2.564-5.687-1.31-9.337-3.787-11.092-7.584a22.821,22.821,0,0,1-1.514-4.657,1.338,1.338,0,0,0-1.515-1,1.271,1.271,0,0,0-1.023,1.549,25.472,25.472,0,0,0,1.688,5.193c1.991,4.312,6.05,7.26,12.025,8.815a2.974,2.974,0,0,0-.049,2.424c.724,1.565,2.826,2.234,7.036,2.234a16.386,16.386,0,0,0,9.954-3.238q1.169-.022,2.365-.03c1.977-.014,4.024-.031,6.047-.173a33.955,33.955,0,0,0,5.108-.719l.012.007A45.843,45.843,0,0,0,54.1,75.3c1.168.116,2.255.174,3.269.174,4.066,0,6.881-.925,8.064-2.693a3.135,3.135,0,0,0,.191-3.267,4.011,4.011,0,0,0-3.6-2c-1,0-2.467-.9-4.1-2.49a20.631,20.631,0,0,0,2.707-7.114c1.841-10.021-1.4-19.193-4.527-28.064l-.535-1.518c-1.428-4.068-.685-9.341,3.5-11.544ZM62.024,70.11a1.467,1.467,0,0,1,1.313.622.534.534,0,0,1-.056.6c-.658.982-3.387,1.936-8.917,1.38-1.645-.166-3.106-.36-4.395-.573A18.732,18.732,0,0,0,56.4,67.147c2.081,1.962,3.971,2.963,5.628,2.963Zm0,0" transform="translate(-0.388 -0.001)"/><path class="e" d="M1.563,347.7a1.716,1.716,0,0,0,.26,0,1.414,1.414,0,0,0,.892-.449,1.313,1.313,0,0,0-.1-1.8,1.4,1.4,0,0,0-.436-.259,1.3,1.3,0,0,0-.5-.09,1.323,1.323,0,0,0-.909.408,1.368,1.368,0,0,0-.338.961,1.416,1.416,0,0,0,.444.921l.205.143a.962.962,0,0,0,.241.1.8.8,0,0,0,.239.065Zm0,0" transform="translate(-0.37 -292.605)"/><path class="e" d="M296.03,328a1.289,1.289,0,0,0,.666-.185c7.035-4.228,7.122-18.675,7.122-19.288a1.3,1.3,0,0,0-2.6,0c0,3.765-1.052,14.177-5.861,17.062a1.3,1.3,0,0,0,.67,2.411Zm0,0" transform="translate(-249.894 -260.49)"/><path class="e" d="M40.4,342.459a1.3,1.3,0,1,0,.367-2.57c-.079-.013-7.972-1.289-7.972-14.294a1.3,1.3,0,0,0-2.6,0c0,15.23,10.1,16.85,10.2,16.864Zm0,0" transform="translate(-25.604 -274.96)"/></g></svg>