<svg xmlns="http://www.w3.org/2000/svg" width="187.5" height="65.914" viewBox="0 0 187.5 65.914">
  <g id="logo_small" transform="translate(-27 -1005.086)">
    <text id="UNDERSEA" transform="translate(27 1051)" fill="#9ffff0" font-size="38" font-family="Baloo"><tspan x="0" y="0">UNDERSEA</tspan></text>
    <g id="Group_22" data-name="Group 22" transform="translate(385 1405.086)">
      <path id="Path_165" data-name="Path 165" d="M-194.751-390.194c-5.745,0-8.66-2.036-11.479-4-2.774-1.937-5.642-3.94-11.272-3.94s-8.5,2-11.272,3.94c-2.819,1.969-5.734,4-11.478,4s-8.659-2.036-11.478-4c-2.773-1.937-5.641-3.94-11.271-3.94s-8.5,2-11.271,3.94c-2.819,1.969-5.734,4-11.478,4s-8.659-2.036-11.478-4c-2.773-1.937-5.641-3.94-11.271-3.94s-8.5,2-11.272,3.94c-2.819,1.969-5.734,4-11.478,4s-8.659-2.036-11.478-4c-2.773-1.937-5.641-3.94-11.271-3.94v-.361c5.744,0,8.659,2.036,11.478,4,2.773,1.937,5.641,3.94,11.271,3.94s8.5-2,11.271-3.94c2.819-1.969,5.734-4,11.479-4s8.659,2.036,11.478,4c2.773,1.937,5.641,3.94,11.271,3.94s8.5-2,11.271-3.94c2.819-1.969,5.734-4,11.478-4s8.659,2.036,11.478,4c2.773,1.937,5.641,3.94,11.272,3.94s8.5-2,11.272-3.94c2.819-1.969,5.734-4,11.479-4s8.66,2.036,11.479,4c2.774,1.937,5.641,3.94,11.272,3.94s8.5-2,11.272-3.94c2.819-1.969,5.734-4,11.479-4v.361c-5.631,0-8.5,2-11.272,3.94C-186.092-392.23-189.007-390.194-194.751-390.194Z" fill="#9ffff0" stroke="#9ffff0" stroke-width="3"/>
    </g>
  </g>
</svg>
